<svg xmlns="http://www.w3.org/2000/svg" width="32" height="30" fill="none"><path fill="#fff" d="M16 0c-4.347 0-4.89.018-6.596.088C7.7.16 6.54.405 5.52.766c-1.052.372-1.945.871-2.835 1.682-.889.81-1.438 1.624-1.845 2.584-.396.93-.665 1.987-.744 3.54C.016 10.128 0 10.622 0 14.585c0 3.962.02 4.457.096 6.013.08 1.552.348 2.61.744 3.54.408.958.956 1.773 1.845 2.584a7.939 7.939 0 0 0 2.835 1.682c1.021.36 2.181.607 3.884.678 1.707.073 2.25.088 6.596.088 4.347 0 4.89-.018 6.596-.088 1.703-.072 2.864-.318 3.884-.678 1.05-.372 1.945-.872 2.835-1.682.888-.81 1.438-1.622 1.845-2.584.395-.93.665-1.988.744-3.54.08-1.556.096-2.05.096-6.013 0-3.962-.02-4.457-.096-6.013-.08-1.552-.35-2.612-.744-3.54-.408-.96-.957-1.773-1.845-2.584A7.91 7.91 0 0 0 26.48.766C25.46.405 24.299.159 22.596.088 20.889.015 20.346 0 16 0Zm0 2.625c4.27 0 4.78.02 6.467.087 1.56.066 2.406.302 2.969.504.75.264 1.28.58 1.843 1.089.558.51.905.995 1.194 1.679.219.512.48 1.284.551 2.706.076 1.539.093 2 .093 5.895 0 3.894-.02 4.357-.098 5.895-.082 1.422-.342 2.194-.562 2.706a4.614 4.614 0 0 1-1.198 1.68c-.559.51-1.099.826-1.84 1.09-.56.199-1.42.437-2.98.501-1.699.07-2.199.085-6.479.085-4.281 0-4.781-.018-6.479-.09-1.561-.074-2.421-.31-2.981-.511-.759-.272-1.28-.582-1.839-1.093-.561-.51-.92-1.002-1.2-1.677-.22-.51-.478-1.295-.56-2.717-.06-1.531-.081-2.004-.081-5.887 0-3.885.021-4.359.081-5.908.082-1.422.34-2.205.56-2.716.28-.692.639-1.166 1.2-1.678.559-.51 1.08-.838 1.839-1.092.56-.201 1.401-.438 2.961-.511 1.7-.055 2.2-.073 6.479-.073l.06.036Zm0 4.47c-4.54 0-8.216 3.355-8.216 7.49 0 4.139 3.68 7.49 8.216 7.49 4.54 0 8.216-3.355 8.216-7.49 0-4.139-3.68-7.49-8.216-7.49Zm0 12.352c-2.947 0-5.333-2.176-5.333-4.862S13.053 9.723 16 9.723s5.333 2.176 5.333 4.862-2.386 4.862-5.333 4.862ZM26.461 6.8c0 .967-.861 1.75-1.92 1.75-1.06 0-1.92-.785-1.92-1.75s.862-1.749 1.92-1.749c1.058 0 1.92.784 1.92 1.75Z"/></svg>