<svg xmlns="http://www.w3.org/2000/svg" width="32" height="21" fill="none"><path fill="#fff" d="M31.33 3.518a3.602 3.602 0 0 0-1.033-1.643A4.124 4.124 0 0 0 28.5.922C26.007.308 16 .308 16 .308S5.993.308 3.497.922c-.68.17-1.298.498-1.794.953A3.603 3.603 0 0 0 .669 3.518C0 5.808 0 10.585 0 10.585s0 4.776.67 7.066c.18.62.537 1.187 1.033 1.643a4.125 4.125 0 0 0 1.796.953c2.494.614 12.501.614 12.501.614s10.007 0 12.503-.614a4.123 4.123 0 0 0 1.795-.953 3.602 3.602 0 0 0 1.034-1.643C32 15.36 32 10.585 32 10.585s0-4.777-.67-7.067ZM12.728 14.921V6.248l8.364 4.337-8.364 4.336Z"/></svg>