<svg width="32" height="32" viewBox="0 0 32 32" fill="none" xmlns="http://www.w3.org/2000/svg">
<circle cx="15.999" cy="16" r="16" fill="white"/>
<path d="M23.5834 11.75H22.6951L20.8534 6.48498C20.7009 6.05085 20.4239 5.67571 20.0597 5.41018C19.6956 5.14464 19.2617 5.00147 18.8167 4.99998H17.0834C16.4876 4.99998 16.0001 5.50623 16.0001 6.12498C16.0001 6.74373 16.4876 7.24998 17.0834 7.24998H18.8167L20.3984 11.75H15.1876L14.7976 10.625H14.8951C15.4909 10.625 15.9784 10.1187 15.9784 9.49998C15.9784 8.88123 15.4909 8.37498 14.8951 8.37498H11.6667C11.0709 8.37498 10.5834 8.88123 10.5834 9.49998C10.5834 10.1187 11.0709 10.625 11.6667 10.625H12.4792L14.4509 16.25H13.7251C13.2484 13.7412 11.2226 11.885 8.68757 11.7612C5.65423 11.6037 3.00007 14.225 3.00007 17.375C3.00007 20.525 5.3834 23 8.41673 23C11.0817 23 13.2376 21.0987 13.7251 18.5H18.2751C18.7517 21.0087 20.7776 22.865 23.3126 22.9887C26.3459 23.135 29.0001 20.525 29.0001 17.3637C29.0001 14.225 26.6167 11.75 23.5834 11.75ZM9.50007 18.5H11.4717C11.0167 19.8837 9.7384 20.84 8.20007 20.7387C6.5859 20.6375 5.24257 19.22 5.16673 17.5325C5.0909 15.5637 6.54257 14 8.41673 14C9.85757 14 11.0384 14.9337 11.4717 16.25H9.50007C8.90423 16.25 8.41673 16.7562 8.41673 17.375C8.41673 17.9937 8.90423 18.5 9.50007 18.5ZM18.2751 16.25H16.7584L15.9676 14H19.2501C18.7734 14.6525 18.4267 15.4062 18.2751 16.25ZM23.4534 20.75C21.7851 20.6825 20.3767 19.2087 20.3334 17.465C20.3117 16.385 20.7559 15.44 21.4709 14.81L22.1426 16.7225C22.3484 17.3075 22.9659 17.6112 23.5292 17.3975C24.0926 17.1837 24.3851 16.5425 24.1792 15.9575L23.4967 14.0112L23.5076 14C23.9419 13.9846 24.3748 14.0608 24.78 14.2239C25.1852 14.3871 25.5543 14.6338 25.8651 14.9493C26.176 15.2647 26.422 15.6423 26.5884 16.0592C26.7549 16.4761 26.8382 16.9237 26.8334 17.375C26.8334 19.31 25.3384 20.8175 23.4534 20.75Z" fill="url(#paint0_linear_104_181)"/>
<defs>
<linearGradient id="paint0_linear_104_181" x1="16" y1="5" x2="16" y2="23" gradientUnits="userSpaceOnUse">
<stop stop-color="#FFB60D"/>
<stop offset="1" stop-color="#E59317"/>
</linearGradient>
</defs>
</svg>
