<svg xmlns="http://www.w3.org/2000/svg" width="30" height="25" fill="none"><path fill="url(#a)" d="M21.818 19.39c-1.963 0-3.2.61-4.29 1.163-.946.48-1.717.872-2.982.872-1.31 0-2.037-.363-2.982-.872-1.091-.553-2.284-1.164-4.291-1.164-2.008 0-3.2.611-4.291 1.164-.626.32-1.178.596-1.847.756C.48 21.454 0 21.98 0 22.633v.145c0 .873.815 1.498 1.658 1.324 1.077-.218 1.891-.626 2.633-1.004.945-.48 1.702-.872 2.982-.872 1.28 0 2.036.363 2.982.872 1.09.553 2.283 1.164 4.29 1.164 2.008 0 3.2-.611 4.291-1.164.946-.48 1.717-.872 2.982-.872 1.31 0 2.037.363 2.982.872.756.378 1.57.8 2.662 1.018a1.367 1.367 0 0 0 1.629-1.323v-.131c0-.67-.495-1.193-1.15-1.338-.668-.146-1.206-.422-1.832-.757-1.09-.567-2.327-1.178-4.29-1.178Zm0-6.474c-1.963 0-3.2.626-4.29 1.164-.946.466-1.717.873-2.982.873-1.31 0-2.037-.364-2.982-.873-1.091-.553-2.284-1.164-4.291-1.164-2.008 0-3.2.626-4.291 1.164-.626.306-1.178.596-1.862.756-.64.146-1.12.67-1.12 1.324v.145a1.353 1.353 0 0 0 1.63 1.324c1.09-.218 1.905-.64 2.66-1.004.946-.509 1.674-.872 2.983-.872 1.309 0 2.036.363 2.982.872 1.09.553 2.283 1.164 4.29 1.164 2.008 0 3.2-.625 4.291-1.164.946-.509 1.673-.872 2.982-.872 1.31 0 2.037.363 2.982.872.756.379 1.57.8 2.662 1.019a1.368 1.368 0 0 0 1.629-1.338v-.132c0-.668-.495-1.192-1.15-1.338-.668-.145-1.206-.421-1.832-.756-1.09-.553-2.327-1.164-4.29-1.164ZM26.11 1.164C25.02.61 23.811 0 21.82 0c-1.993 0-3.2.61-4.292 1.164-.945.465-1.716.872-2.982.872-1.309 0-2.036-.363-2.981-.872C10.473.625 9.28 0 7.273 0c-2.008 0-3.2.61-4.291 1.164-.626.32-1.178.596-1.847.756C.48 2.065 0 2.59 0 3.244v.101c0 .873.785 1.513 1.63 1.339 1.09-.219 1.905-.64 2.66-1.004.946-.48 1.703-.873 2.983-.873s2.036.364 2.982.873c1.09.553 2.283 1.164 4.29 1.164 2.008 0 3.2-.626 4.291-1.164.946-.465 1.717-.873 2.982-.873 1.31 0 2.037.364 2.982.873.756.378 1.57.8 2.662 1.018A1.367 1.367 0 0 0 29.09 3.36v-.13c0-.67-.495-1.194-1.15-1.34-.668-.145-1.206-.406-1.832-.726Zm-4.29 5.28c-1.964 0-3.2.625-4.292 1.163-.945.51-1.673.873-2.982.873-1.309 0-2.036-.364-2.981-.873-1.091-.552-2.284-1.163-4.291-1.163-2.008 0-3.2.625-4.291 1.163-.626.335-1.164.611-1.833.757C.495 8.509 0 9.033 0 9.702v.13a1.353 1.353 0 0 0 1.63 1.324c1.09-.218 1.905-.64 2.66-1.003.946-.466 1.717-.873 2.983-.873 1.265 0 2.036.364 2.982.873 1.09.553 2.283 1.163 4.29 1.163 2.008 0 3.2-.625 4.291-1.163.946-.466 1.717-.873 2.982-.873 1.31 0 2.037.364 2.982.873.756.378 1.57.8 2.662 1.018a1.367 1.367 0 0 0 1.629-1.324v-.13c0-.67-.495-1.193-1.15-1.339-.668-.145-1.206-.422-1.832-.756-1.09-.567-2.327-1.178-4.29-1.178Z"/><defs><linearGradient id="a" x1="14.546" x2="14.546" y1="0" y2="24.262" gradientUnits="userSpaceOnUse"><stop stop-color="#FB0"/><stop offset="0" stop-color="#FFBF00"/><stop offset="1" stop-color="#F2A50C"/></linearGradient></defs></svg>