<svg xmlns="http://www.w3.org/2000/svg" width="24" height="31" fill="none"><path fill="url(#a)" d="M20.364 10.182h-1.455v-2.91A7.275 7.275 0 0 0 11.636 0a7.275 7.275 0 0 0-7.272 7.273v2.909H2.909C1.31 10.182 0 11.49 0 13.09v14.545c0 1.6 1.31 2.91 2.91 2.91h17.454c1.6 0 2.909-1.31 2.909-2.91V13.091c0-1.6-1.31-2.91-2.91-2.91Zm-8.728 13.09c-1.6 0-2.909-1.308-2.909-2.908 0-1.6 1.31-2.91 2.91-2.91s2.909 1.31 2.909 2.91-1.31 2.909-2.91 2.909Zm-4.363-13.09v-2.91a4.358 4.358 0 0 1 4.363-4.363A4.358 4.358 0 0 1 16 7.273v2.909H7.273Z"/><defs><linearGradient id="a" x1="11.636" x2="11.636" y1="0" y2="30.546" gradientUnits="userSpaceOnUse"><stop stop-color="#FB0"/><stop offset="0" stop-color="#FFBF00"/><stop offset="1" stop-color="#F2A50C"/></linearGradient></defs></svg>