<svg xmlns="http://www.w3.org/2000/svg" width="30" height="24" fill="none"><path fill="url(#a)" d="M25.398 8.755a1.454 1.454 0 0 0-.102 1.455c.36.842.615 1.726.756 2.633a11.636 11.636 0 0 1-1.003 6.88 1.454 1.454 0 0 1-1.295.77h-18.4a1.454 1.454 0 0 1-1.294-.785A11.637 11.637 0 0 1 16 3.024c1.057.125 2.09.399 3.07.815a1.455 1.455 0 0 0 1.454-.102 1.454 1.454 0 0 0-.247-2.56 14.545 14.545 0 0 0-18.313 20.67A2.91 2.91 0 0 0 4.467 23.3h20.145a2.908 2.908 0 0 0 2.531-1.455 14.546 14.546 0 0 0 .8-12.93 1.456 1.456 0 0 0-2.545-.16Z"/><path fill="url(#b)" d="M12.496 12.523a2.91 2.91 0 0 0 4.116 4.116l8.233-12.35-12.349 8.234Z"/><defs><linearGradient id="a" x1="14.545" x2="14.545" y1="0" y2="23.301" gradientUnits="userSpaceOnUse"><stop stop-color="#FB0"/><stop offset="0" stop-color="#FFBF00"/><stop offset="1" stop-color="#F2A50C"/></linearGradient><linearGradient id="b" x1="18.244" x2="18.244" y1="4.29" y2="17.491" gradientUnits="userSpaceOnUse"><stop stop-color="#FB0"/><stop offset="0" stop-color="#FFBF00"/><stop offset="1" stop-color="#F2A50C"/></linearGradient></defs></svg>